<svg xmlns="http://www.w3.org/2000/svg" viewBox="0 0 265.0 230.0" role="img" aria-label="NeuronCodec"><title>NeuronCodec</title><path fill="#c67139" fill-rule="evenodd" d="M158.44 3.81 L164.53 3.72 L168.50 4.50 L178.75 8.25 L185.28 12.09 L193.41 19.22 L198.13 25.75 L198.59 27.72 L199.44 28.94 L202.53 29.41 L213.31 29.69 L221.31 31.63 L225.75 33.38 L233.88 37.75 L244.69 48.81 L251.63 57.25 L253.50 61.94 L255.13 68.63 L255.13 73.50 L254.44 79.31 L252.00 86.63 L251.50 90.38 L252.00 91.88 L256.00 98.00 L257.88 102.13 L261.31 114.94 L261.44 128.69 L260.25 135.94 L258.00 141.00 L255.81 144.44 L253.38 147.13 L252.38 149.81 L256.31 162.06 L257.25 169.00 L256.88 173.88 L255.81 179.19 L254.00 184.25 L251.34 188.78 L247.81 192.69 L243.59 195.97 L236.69 199.56 L232.41 200.78 L225.44 209.06 L221.34 212.22 L213.94 216.38 L199.13 221.44 L175.38 226.13 L171.44 225.94 L170.78 224.84 L170.31 218.25 L169.66 216.22 L169.81 214.19 L171.09 212.78 L175.81 212.31 L178.06 211.56 L182.81 211.31 L184.38 210.63 L191.38 209.63 L194.50 208.56 L197.00 208.31 L198.50 207.56 L201.00 207.31 L208.69 204.56 L211.31 202.44 L209.34 201.41 L202.38 200.38 L191.25 196.31 L182.91 191.47 L177.56 187.06 L173.63 181.25 L172.50 176.38 L173.25 170.13 L174.41 167.66 L177.31 164.19 L180.03 162.22 L183.38 160.63 L189.75 159.50 L195.56 159.69 L197.50 160.44 L200.00 160.69 L205.81 162.75 L213.50 166.88 L221.19 172.69 L225.19 176.94 L230.28 184.91 L231.75 186.50 L233.00 186.25 L236.75 184.00 L239.47 181.16 L242.66 175.09 L243.50 171.00 L243.28 166.97 L242.19 162.81 L240.47 159.09 L238.88 157.50 L232.63 159.13 L227.88 159.56 L225.31 160.31 L212.69 160.31 L210.13 159.56 L206.13 159.31 L196.56 156.06 L192.53 153.66 L186.59 147.91 L184.75 145.13 L183.88 142.44 L183.50 139.00 L183.88 133.56 L186.03 128.66 L189.91 125.16 L192.75 123.63 L194.94 123.06 L201.38 122.50 L212.38 122.88 L218.56 124.63 L225.88 127.63 L231.00 130.50 L240.50 137.25 L242.47 137.84 L244.31 136.81 L246.28 133.91 L248.13 128.25 L248.50 123.00 L247.31 114.13 L245.47 108.59 L243.31 104.56 L241.25 102.50 L240.00 102.81 L232.50 108.31 L224.25 113.13 L213.56 117.13 L208.25 118.31 L196.75 118.44 L193.63 118.13 L190.94 117.25 L185.03 113.78 L182.31 110.69 L180.34 106.78 L179.50 99.75 L179.88 95.88 L180.75 93.50 L186.97 86.66 L195.13 81.69 L196.81 81.38 L199.88 79.81 L208.25 77.69 L214.75 77.31 L217.13 76.50 L220.25 77.31 L226.38 77.75 L237.59 80.97 L238.94 80.56 L240.25 76.63 L241.19 71.38 L240.38 66.50 L239.25 63.50 L234.19 57.31 L228.66 51.59 L224.00 48.00 L220.38 46.25 L213.38 43.88 L207.19 43.31 L205.94 42.75 L203.50 43.13 L201.97 43.91 L200.78 45.91 L200.31 51.81 L198.38 57.69 L192.75 69.13 L186.06 76.06 L176.25 84.50 L170.13 86.38 L160.94 86.13 L157.41 84.53 L152.41 79.72 L150.75 77.13 L149.88 74.56 L149.56 69.06 L151.81 61.00 L155.38 55.25 L160.44 49.06 L168.03 42.03 L174.56 37.56 L182.06 34.19 L184.22 32.28 L184.00 29.75 L179.44 24.31 L176.41 22.09 L169.75 19.00 L161.88 17.50 L153.81 18.25 L148.75 20.00 L144.22 22.28 L137.97 27.03 L137.50 27.75 L137.69 28.94 L140.31 34.06 L142.13 39.50 L143.31 45.81 L143.13 61.38 L140.75 68.13 L136.69 72.81 L132.50 75.75 L126.50 76.50 L119.00 76.13 L116.50 75.25 L114.41 73.78 L109.75 68.50 L108.88 66.50 L108.44 62.69 L107.88 61.38 L107.88 56.88 L108.63 50.50 L111.56 41.75 L118.50 28.25 L117.56 25.44 L113.63 22.63 L109.31 20.38 L99.56 17.56 L93.31 17.69 L85.69 19.63 L78.75 22.63 L72.94 26.56 L70.28 29.47 L68.00 33.00 L65.75 37.88 L64.69 41.50 L64.78 49.97 L66.19 52.19 L68.91 52.66 L77.19 55.50 L84.88 59.25 L91.81 63.94 L97.16 69.47 L101.38 76.44 L103.25 83.94 L101.94 90.88 L99.66 95.28 L93.97 101.41 L89.50 104.13 L85.69 104.56 L83.88 105.25 L82.94 104.69 L78.50 104.13 L76.50 103.25 L68.44 96.56 L62.25 89.63 L57.25 81.50 L52.59 67.66 L51.78 66.47 L49.69 65.69 L43.88 67.38 L38.53 70.09 L33.81 73.69 L29.84 77.84 L27.00 81.63 L24.75 85.94 L22.81 91.88 L21.88 98.25 L21.88 102.38 L23.75 110.13 L28.56 117.31 L31.75 120.50 L46.81 114.81 L55.63 113.38 L57.31 112.69 L63.56 112.56 L69.69 113.69 L76.09 116.41 L79.44 119.31 L82.28 122.78 L83.50 125.13 L84.31 128.38 L84.50 133.63 L84.31 136.63 L83.22 139.97 L78.53 145.53 L74.94 147.25 L64.38 149.06 L55.25 148.44 L50.50 147.44 L41.88 144.50 L32.47 139.97 L30.41 139.91 L28.56 140.56 L24.16 144.78 L21.13 149.19 L19.25 153.13 L18.31 158.00 L17.69 159.06 L17.69 162.94 L18.38 164.25 L19.50 170.00 L21.38 174.13 L24.56 178.06 L27.34 180.66 L33.13 183.94 L40.81 185.44 L48.84 185.03 L49.94 184.56 L51.03 183.16 L52.25 176.25 L56.38 166.00 L60.59 159.47 L63.69 155.81 L71.25 150.75 L76.63 148.88 L82.50 148.50 L88.50 149.25 L90.78 150.72 L94.19 154.06 L99.16 160.72 L99.88 162.63 L100.25 166.75 L98.38 172.50 L93.97 179.09 L88.81 184.06 L84.03 187.41 L77.88 190.88 L68.97 194.72 L68.06 195.44 L67.97 196.47 L69.59 198.84 L74.19 203.06 L79.34 206.22 L89.56 210.38 L98.63 212.13 L121.00 212.44 L126.38 212.13 L132.25 210.94 L138.03 208.59 L142.19 205.69 L147.34 200.53 L149.13 196.31 L149.31 186.25 L148.88 184.75 L147.56 183.81 L145.22 184.09 L140.94 186.31 L135.50 188.13 L127.63 189.44 L117.63 189.31 L112.44 188.13 L109.41 186.53 L104.53 181.91 L103.50 180.25 L102.69 177.50 L102.50 171.13 L102.88 166.94 L103.75 164.50 L105.41 162.41 L109.28 159.22 L113.13 157.25 L118.94 156.31 L119.88 155.75 L120.88 156.25 L121.94 155.75 L123.69 156.25 L125.13 155.75 L126.38 156.38 L135.56 158.00 L143.00 160.75 L148.00 163.75 L150.25 164.50 L152.69 162.44 L155.59 158.41 L157.13 154.44 L157.50 151.00 L157.31 146.31 L156.31 143.06 L153.91 138.91 L151.94 137.69 L149.28 138.66 L141.25 143.13 L134.69 145.38 L128.81 146.63 L119.56 147.25 L112.06 145.56 L108.50 144.25 L103.56 139.44 L101.84 137.03 L100.88 134.38 L100.63 125.63 L101.25 122.50 L102.34 120.53 L104.69 117.81 L109.38 115.00 L115.56 112.75 L120.81 112.31 L121.88 111.75 L124.13 112.50 L127.13 111.75 L130.00 112.63 L138.50 113.63 L145.63 116.00 L150.38 118.50 L154.44 114.44 L156.13 113.50 L158.00 113.69 L163.28 115.47 L166.19 117.06 L166.66 117.91 L166.38 120.25 L162.88 125.75 L162.50 127.25 L168.50 136.75 L170.13 141.50 L170.69 145.94 L171.31 147.19 L171.31 152.81 L168.38 163.25 L166.63 166.38 L162.13 172.00 L160.50 175.81 L163.44 188.44 L163.44 193.56 L162.56 196.69 L162.31 199.94 L159.25 207.88 L151.31 215.56 L146.59 219.41 L141.94 221.94 L138.31 222.63 L132.56 224.56 L122.69 226.31 L101.31 226.31 L88.06 224.31 L86.75 223.63 L78.38 221.63 L70.41 217.91 L65.06 214.31 L60.06 209.94 L52.59 200.53 L50.53 199.34 L48.25 198.88 L42.44 199.25 L39.75 198.56 L34.25 198.31 L25.50 195.44 L18.47 191.16 L12.94 185.81 L9.78 181.03 L5.56 171.69 L4.13 165.50 L3.75 158.56 L4.44 156.13 L4.69 152.13 L6.25 147.63 L9.38 141.81 L19.50 129.63 L15.56 124.31 L11.63 117.75 L8.44 108.19 L7.75 99.50 L8.44 96.75 L8.69 91.25 L10.88 84.13 L18.28 70.53 L22.31 65.19 L25.97 61.72 L35.25 55.63 L37.00 55.31 L43.38 52.69 L46.47 52.41 L49.19 51.56 L50.28 49.22 L50.69 41.44 L51.44 39.50 L51.56 37.50 L54.50 28.94 L56.75 24.63 L61.81 17.69 L65.47 14.59 L72.81 9.88 L80.31 7.00 L88.63 4.88 L95.75 4.50 L107.38 4.88 L116.25 7.63 L119.44 9.38 L125.63 13.88 L127.69 14.88 L129.56 15.13 L131.25 14.63 L136.31 10.88 L143.81 6.81 L150.50 4.63 L156.44 3.94 Z M126.69 40.81 L127.25 40.81 L128.34 42.03 L130.13 46.81 L130.50 54.50 L129.88 60.25 L127.31 62.56 L124.75 63.50 L122.44 61.94 L121.66 59.66 L121.69 53.31 L123.50 47.63 L126.59 40.97 Z M185.06 47.81 L186.00 48.00 L186.28 50.03 L184.31 55.69 L182.25 59.75 L176.44 68.06 L173.78 70.59 L170.50 72.75 L166.50 73.50 L164.78 73.03 L163.44 71.94 L162.66 70.59 L162.50 69.13 L163.75 65.50 L167.94 59.94 L171.16 56.78 L176.88 52.44 L184.75 47.94 Z M68.06 66.81 L69.09 66.72 L72.13 67.75 L77.00 70.00 L80.25 72.00 L86.31 77.19 L88.28 80.09 L89.25 83.88 L88.09 88.16 L86.22 90.03 L83.50 90.50 L80.75 89.88 L74.66 84.03 L70.25 77.38 L68.78 74.34 L67.19 67.81 L67.75 66.94 Z M213.69 90.81 L218.66 90.72 L220.13 91.31 L224.28 91.66 L227.19 93.06 L227.25 94.69 L223.41 97.97 L216.75 101.63 L213.25 103.19 L205.38 105.38 L198.66 105.34 L195.69 104.56 L194.09 103.22 L193.13 101.50 L193.22 98.59 L195.72 95.97 L201.00 93.06 L205.13 91.69 L212.06 90.94 Z M60.19 125.81 L62.47 125.72 L64.88 126.25 L68.16 127.84 L70.03 129.66 L71.25 132.94 L71.13 133.75 L69.56 135.56 L66.84 136.41 L61.25 136.31 L58.75 135.38 L53.88 134.50 L48.63 132.63 L45.81 130.94 L46.38 129.63 L49.66 127.91 L59.31 125.94 Z M121.56 125.81 L130.38 125.88 L136.72 127.72 L137.31 128.81 L136.16 130.22 L134.00 130.69 L128.56 133.00 L120.63 134.25 L118.63 134.13 L116.22 133.28 L114.44 131.31 L113.50 129.25 L113.97 127.84 L116.31 126.19 L119.00 125.94 Z M202.19 134.81 L204.91 134.72 L206.50 135.44 L209.00 135.69 L218.00 139.00 L223.34 141.91 L226.56 144.44 L226.94 145.56 L225.16 146.22 L208.94 146.31 L203.91 144.84 L199.66 142.34 L198.13 140.13 L198.03 137.03 L200.31 135.19 L201.31 134.94 Z M79.44 161.81 L81.03 161.72 L83.78 162.66 L85.56 164.06 L86.13 166.50 L84.72 169.59 L81.47 172.91 L77.25 176.00 L67.25 180.50 L66.03 179.84 L65.84 177.16 L69.09 170.16 L74.16 164.47 L78.94 161.94 Z M121.44 169.81 L128.75 170.19 L132.69 171.69 L134.75 173.06 L134.94 173.56 L133.91 174.28 L125.75 176.44 L121.03 176.28 L117.19 174.31 L116.44 173.50 L116.06 172.06 L117.31 170.19 L119.44 169.94 Z M189.94 172.81 L193.78 172.72 L197.31 173.88 L206.41 178.84 L212.69 184.19 L213.63 185.63 L213.63 186.63 L212.69 187.19 L208.28 187.28 L206.31 186.56 L203.06 186.31 L193.25 182.63 L189.31 179.81 L186.88 176.63 L187.19 173.31 L188.69 172.94 Z"></path></svg>